<svg xmlns="http://www.w3.org/2000/svg" xmlns:xlink="http://www.w3.org/1999/xlink" width="40" zoomAndPan="magnify" viewBox="0 0 30 30.000001" height="40" preserveAspectRatio="xMidYMid meet" version="1.0"><defs><clipPath id="4c368fa9d2"><path d="M 21 10 L 27.914062 10 L 27.914062 26.128906 L 21 26.128906 Z M 21 10 " clip-rule="nonzero"/></clipPath><clipPath id="f02ce3d6d8"><path d="M 1.785156 7 L 10 7 L 10 26.128906 L 1.785156 26.128906 Z M 1.785156 7 " clip-rule="nonzero"/></clipPath><clipPath id="8fc8b58ba8"><path d="M 11 2.902344 L 21 2.902344 L 21 26.128906 L 11 26.128906 Z M 11 2.902344 " clip-rule="nonzero"/></clipPath></defs><g clip-path="url(#4c368fa9d2)"><path fill="#d9d9d9" d="M 27.898438 10.761719 L 27.898438 26.113281 L 21.984375 26.113281 L 21.984375 21.617188 L 23.898438 21.617188 L 21.984375 19.679688 L 21.984375 10.761719 Z M 27.898438 10.761719 " fill-opacity="1" fill-rule="nonzero"/></g><g clip-path="url(#f02ce3d6d8)"><path fill="#04aa6d" d="M 9.117188 12.328125 L 7.203125 14.273438 L 9.117188 14.273438 L 9.117188 26.113281 L 1.800781 26.113281 L 1.800781 7.398438 L 9.117188 7.398438 Z M 9.117188 12.328125 " fill-opacity="1" fill-rule="nonzero"/></g><g clip-path="url(#8fc8b58ba8)"><path fill="#04aa6d" d="M 20.097656 19.679688 L 18.183594 21.617188 L 20.097656 21.617188 L 20.097656 26.113281 L 11.003906 26.113281 L 11.003906 14.273438 L 12.917969 14.273438 L 11.003906 12.328125 L 11.003906 2.917969 L 20.097656 2.917969 Z M 20.097656 19.679688 " fill-opacity="1" fill-rule="nonzero"/></g></svg>