<svg xmlns="http://www.w3.org/2000/svg" xmlns:xlink="http://www.w3.org/1999/xlink" width="200" zoomAndPan="magnify" viewBox="0 0 150 74.999997" height="100" preserveAspectRatio="xMidYMid meet" version="1.0"><defs><g/><clipPath id="eea985f0ee"><path d="M 85 18 L 93.777344 18 L 93.777344 40.5 L 85 40.5 Z M 85 18 " clip-rule="nonzero"/></clipPath><clipPath id="37264dade5"><path d="M 56.277344 13 L 67 13 L 67 40.5 L 56.277344 40.5 Z M 56.277344 13 " clip-rule="nonzero"/></clipPath><clipPath id="90b04dd3b7"><path d="M 69 7.5 L 83 7.5 L 83 40.5 L 69 40.5 Z M 69 7.5 " clip-rule="nonzero"/></clipPath></defs><g clip-path="url(#eea985f0ee)"><path fill="#ffffff" d="M 93.753906 18.664062 L 93.753906 40.488281 L 85.265625 40.488281 L 85.265625 34.09375 L 88.015625 34.09375 L 85.265625 31.339844 L 85.265625 18.664062 Z M 93.753906 18.664062 " fill-opacity="1" fill-rule="nonzero"/></g><g clip-path="url(#37264dade5)"><path fill="#04aa6d" d="M 66.804688 20.890625 L 64.054688 23.65625 L 66.804688 23.65625 L 66.804688 40.488281 L 56.300781 40.488281 L 56.300781 13.882812 L 66.804688 13.882812 Z M 66.804688 20.890625 " fill-opacity="1" fill-rule="nonzero"/></g><g clip-path="url(#90b04dd3b7)"><path fill="#04aa6d" d="M 82.5625 31.339844 L 79.8125 34.09375 L 82.5625 34.09375 L 82.5625 40.488281 L 69.507812 40.488281 L 69.507812 23.65625 L 72.257812 23.65625 L 69.507812 20.890625 L 69.507812 7.511719 L 82.5625 7.511719 Z M 82.5625 31.339844 " fill-opacity="1" fill-rule="nonzero"/></g><g fill="#ffffff" fill-opacity="1"><g transform="translate(20.462231, 51.605745)"><g><path d="M 7.46875 -6.953125 L 7.421875 -6.9375 C 7.117188 -7.207031 6.757812 -7.425781 6.34375 -7.59375 C 5.925781 -7.757812 5.46875 -7.84375 4.96875 -7.84375 C 4.476562 -7.84375 4.03125 -7.765625 3.625 -7.609375 C 3.226562 -7.460938 2.882812 -7.242188 2.59375 -6.953125 C 2.3125 -6.671875 2.085938 -6.320312 1.921875 -5.90625 C 1.765625 -5.488281 1.6875 -5.015625 1.6875 -4.484375 C 1.6875 -3.898438 1.765625 -3.351562 1.921875 -2.84375 C 2.078125 -2.332031 2.300781 -1.890625 2.59375 -1.515625 C 2.894531 -1.148438 3.269531 -0.863281 3.71875 -0.65625 C 4.175781 -0.445312 4.707031 -0.34375 5.3125 -0.34375 C 5.53125 -0.34375 5.75 -0.363281 5.96875 -0.40625 C 6.1875 -0.445312 6.394531 -0.515625 6.59375 -0.609375 C 6.800781 -0.703125 6.992188 -0.8125 7.171875 -0.9375 C 7.347656 -1.0625 7.507812 -1.207031 7.65625 -1.375 L 7.71875 -1.328125 L 7.25 -0.171875 C 6.96875 -0.0546875 6.648438 0.0234375 6.296875 0.078125 C 5.953125 0.140625 5.609375 0.171875 5.265625 0.171875 C 4.554688 0.171875 3.90625 0.0703125 3.3125 -0.125 C 2.726562 -0.332031 2.222656 -0.625 1.796875 -1 C 1.378906 -1.375 1.050781 -1.820312 0.8125 -2.34375 C 0.582031 -2.875 0.46875 -3.457031 0.46875 -4.09375 C 0.46875 -4.457031 0.515625 -4.8125 0.609375 -5.15625 C 0.703125 -5.507812 0.835938 -5.84375 1.015625 -6.15625 C 1.203125 -6.476562 1.425781 -6.769531 1.6875 -7.03125 C 1.945312 -7.300781 2.242188 -7.535156 2.578125 -7.734375 C 2.921875 -7.929688 3.296875 -8.082031 3.703125 -8.1875 C 4.109375 -8.300781 4.550781 -8.359375 5.03125 -8.359375 C 5.757812 -8.359375 6.441406 -8.242188 7.078125 -8.015625 Z M 7.46875 -6.953125 "/></g></g></g><g fill="#ffffff" fill-opacity="1"><g transform="translate(31.484414, 51.605745)"><g><path d="M 4.5625 -8.359375 C 5.195312 -8.359375 5.785156 -8.253906 6.328125 -8.046875 C 6.867188 -7.835938 7.335938 -7.539062 7.734375 -7.15625 C 8.128906 -6.78125 8.4375 -6.328125 8.65625 -5.796875 C 8.875 -5.273438 8.984375 -4.695312 8.984375 -4.0625 C 8.984375 -3.695312 8.941406 -3.335938 8.859375 -2.984375 C 8.773438 -2.640625 8.648438 -2.3125 8.484375 -2 C 8.328125 -1.6875 8.128906 -1.394531 7.890625 -1.125 C 7.660156 -0.863281 7.390625 -0.632812 7.078125 -0.4375 C 6.773438 -0.25 6.441406 -0.101562 6.078125 0 C 5.710938 0.113281 5.316406 0.171875 4.890625 0.171875 C 4.253906 0.171875 3.664062 0.0703125 3.125 -0.125 C 2.582031 -0.332031 2.113281 -0.625 1.71875 -1 C 1.332031 -1.375 1.023438 -1.820312 0.796875 -2.34375 C 0.578125 -2.875 0.46875 -3.457031 0.46875 -4.09375 C 0.46875 -4.457031 0.507812 -4.8125 0.59375 -5.15625 C 0.675781 -5.507812 0.796875 -5.84375 0.953125 -6.15625 C 1.117188 -6.476562 1.316406 -6.769531 1.546875 -7.03125 C 1.785156 -7.300781 2.054688 -7.535156 2.359375 -7.734375 C 2.671875 -7.929688 3.007812 -8.082031 3.375 -8.1875 C 3.75 -8.300781 4.144531 -8.359375 4.5625 -8.359375 Z M 4.890625 -0.34375 C 5.316406 -0.34375 5.703125 -0.414062 6.046875 -0.5625 C 6.398438 -0.71875 6.703125 -0.941406 6.953125 -1.234375 C 7.210938 -1.523438 7.410156 -1.878906 7.546875 -2.296875 C 7.691406 -2.710938 7.765625 -3.1875 7.765625 -3.71875 C 7.765625 -4.300781 7.695312 -4.84375 7.5625 -5.34375 C 7.425781 -5.851562 7.222656 -6.289062 6.953125 -6.65625 C 6.691406 -7.03125 6.359375 -7.320312 5.953125 -7.53125 C 5.554688 -7.738281 5.09375 -7.84375 4.5625 -7.84375 C 4.144531 -7.84375 3.757812 -7.765625 3.40625 -7.609375 C 3.050781 -7.460938 2.742188 -7.242188 2.484375 -6.953125 C 2.234375 -6.671875 2.035156 -6.320312 1.890625 -5.90625 C 1.753906 -5.488281 1.6875 -5.015625 1.6875 -4.484375 C 1.6875 -3.898438 1.753906 -3.351562 1.890625 -2.84375 C 2.023438 -2.332031 2.222656 -1.890625 2.484375 -1.515625 C 2.753906 -1.148438 3.085938 -0.863281 3.484375 -0.65625 C 3.890625 -0.445312 4.359375 -0.34375 4.890625 -0.34375 Z M 4.890625 -0.34375 "/></g></g></g><g fill="#ffffff" fill-opacity="1"><g transform="translate(44.024169, 51.605745)"><g><path d="M 1.140625 -8.21875 L 7.046875 -1.9375 L 7.046875 -5.96875 C 7.046875 -6.289062 7.039062 -6.570312 7.03125 -6.8125 C 7.019531 -7.0625 7.003906 -7.273438 6.984375 -7.453125 C 6.972656 -7.628906 6.957031 -7.773438 6.9375 -7.890625 C 6.914062 -8.015625 6.894531 -8.113281 6.875 -8.1875 L 6.875 -8.21875 L 7.890625 -8.21875 L 7.890625 -8.1875 C 7.867188 -8.113281 7.847656 -8.015625 7.828125 -7.890625 C 7.804688 -7.773438 7.789062 -7.628906 7.78125 -7.453125 C 7.769531 -7.273438 7.757812 -7.0625 7.75 -6.8125 C 7.738281 -6.570312 7.734375 -6.289062 7.734375 -5.96875 L 7.734375 0.109375 L 7.53125 0.109375 L 1.640625 -6.15625 L 1.640625 -2.234375 C 1.640625 -1.910156 1.640625 -1.628906 1.640625 -1.390625 C 1.648438 -1.148438 1.660156 -0.941406 1.671875 -0.765625 C 1.691406 -0.585938 1.710938 -0.4375 1.734375 -0.3125 C 1.753906 -0.195312 1.773438 -0.0976562 1.796875 -0.015625 L 1.796875 0 L 0.78125 0 L 0.78125 -0.015625 C 0.800781 -0.0976562 0.820312 -0.195312 0.84375 -0.3125 C 0.863281 -0.4375 0.878906 -0.585938 0.890625 -0.765625 C 0.910156 -0.941406 0.921875 -1.148438 0.921875 -1.390625 C 0.929688 -1.628906 0.9375 -1.910156 0.9375 -2.234375 L 0.9375 -5.96875 C 0.9375 -6.289062 0.929688 -6.570312 0.921875 -6.8125 C 0.921875 -7.0625 0.910156 -7.273438 0.890625 -7.453125 C 0.878906 -7.628906 0.863281 -7.773438 0.84375 -7.890625 C 0.820312 -8.015625 0.800781 -8.113281 0.78125 -8.1875 L 0.78125 -8.21875 Z M 1.140625 -8.21875 "/></g></g></g><g fill="#ffffff" fill-opacity="1"><g transform="translate(55.773641, 51.605745)"><g><path d="M 2.984375 -7.71875 C 2.523438 -7.71875 2.113281 -7.695312 1.75 -7.65625 C 1.394531 -7.613281 1.082031 -7.566406 0.8125 -7.515625 C 0.507812 -7.460938 0.238281 -7.398438 0 -7.328125 L 0.171875 -8.265625 C 0.210938 -8.253906 0.28125 -8.25 0.375 -8.25 C 0.46875 -8.25 0.566406 -8.242188 0.671875 -8.234375 C 0.785156 -8.234375 0.90625 -8.234375 1.03125 -8.234375 C 1.15625 -8.234375 1.269531 -8.226562 1.375 -8.21875 C 1.488281 -8.21875 1.585938 -8.21875 1.671875 -8.21875 C 1.765625 -8.21875 1.832031 -8.21875 1.875 -8.21875 L 5.140625 -8.21875 C 5.179688 -8.21875 5.242188 -8.21875 5.328125 -8.21875 C 5.410156 -8.21875 5.503906 -8.21875 5.609375 -8.21875 C 5.722656 -8.226562 5.84375 -8.234375 5.96875 -8.234375 C 6.09375 -8.234375 6.210938 -8.234375 6.328125 -8.234375 C 6.441406 -8.242188 6.539062 -8.25 6.625 -8.25 C 6.71875 -8.25 6.789062 -8.253906 6.84375 -8.265625 L 7 -7.328125 C 6.757812 -7.398438 6.488281 -7.460938 6.1875 -7.515625 C 5.914062 -7.566406 5.597656 -7.613281 5.234375 -7.65625 C 4.878906 -7.695312 4.472656 -7.71875 4.015625 -7.71875 L 4.015625 -2.234375 C 4.015625 -1.910156 4.019531 -1.628906 4.03125 -1.390625 C 4.039062 -1.148438 4.050781 -0.941406 4.0625 -0.765625 C 4.082031 -0.585938 4.101562 -0.4375 4.125 -0.3125 C 4.144531 -0.195312 4.164062 -0.0976562 4.1875 -0.015625 L 4.1875 0 L 2.8125 0 L 2.8125 -0.015625 C 2.84375 -0.0976562 2.863281 -0.195312 2.875 -0.3125 C 2.894531 -0.4375 2.910156 -0.585938 2.921875 -0.765625 C 2.941406 -0.941406 2.957031 -1.148438 2.96875 -1.390625 C 2.976562 -1.628906 2.984375 -1.910156 2.984375 -2.234375 Z M 2.984375 -7.71875 "/></g></g></g><g fill="#ffffff" fill-opacity="1"><g transform="translate(65.862379, 51.605745)"><g><path d="M 2.03125 -2.234375 C 2.03125 -1.910156 2.035156 -1.628906 2.046875 -1.390625 C 2.054688 -1.148438 2.066406 -0.941406 2.078125 -0.765625 C 2.085938 -0.585938 2.101562 -0.4375 2.125 -0.3125 C 2.144531 -0.195312 2.164062 -0.0976562 2.1875 -0.015625 L 2.1875 0 L 0.8125 0 L 0.8125 -0.015625 C 0.84375 -0.0976562 0.867188 -0.195312 0.890625 -0.3125 C 0.910156 -0.4375 0.925781 -0.585938 0.9375 -0.765625 C 0.945312 -0.941406 0.957031 -1.148438 0.96875 -1.390625 C 0.976562 -1.628906 0.984375 -1.910156 0.984375 -2.234375 L 0.984375 -5.96875 C 0.984375 -6.289062 0.976562 -6.570312 0.96875 -6.8125 C 0.957031 -7.0625 0.945312 -7.273438 0.9375 -7.453125 C 0.925781 -7.628906 0.910156 -7.773438 0.890625 -7.890625 C 0.867188 -8.015625 0.84375 -8.113281 0.8125 -8.1875 L 0.8125 -8.21875 L 1.0625 -8.1875 C 1.132812 -8.1875 1.210938 -8.179688 1.296875 -8.171875 C 1.390625 -8.171875 1.484375 -8.171875 1.578125 -8.171875 C 1.734375 -8.171875 1.9375 -8.1875 2.1875 -8.21875 C 2.4375 -8.257812 2.757812 -8.28125 3.15625 -8.28125 C 3.519531 -8.28125 3.859375 -8.226562 4.171875 -8.125 C 4.484375 -8.03125 4.753906 -7.890625 4.984375 -7.703125 C 5.210938 -7.515625 5.390625 -7.28125 5.515625 -7 C 5.648438 -6.71875 5.71875 -6.40625 5.71875 -6.0625 C 5.71875 -5.78125 5.679688 -5.519531 5.609375 -5.28125 C 5.535156 -5.050781 5.429688 -4.835938 5.296875 -4.640625 C 5.171875 -4.453125 5.019531 -4.285156 4.84375 -4.140625 C 4.664062 -3.992188 4.46875 -3.875 4.25 -3.78125 L 6.25 -0.953125 C 6.351562 -0.804688 6.445312 -0.679688 6.53125 -0.578125 C 6.613281 -0.484375 6.695312 -0.394531 6.78125 -0.3125 C 6.863281 -0.238281 6.9375 -0.175781 7 -0.125 C 7.070312 -0.0820312 7.148438 -0.046875 7.234375 -0.015625 L 7.234375 0 L 5.578125 0 C 5.566406 -0.0703125 5.53125 -0.164062 5.46875 -0.28125 C 5.40625 -0.40625 5.332031 -0.523438 5.25 -0.640625 L 3.21875 -3.5 C 3.125 -3.5 3.03125 -3.492188 2.9375 -3.484375 C 2.851562 -3.484375 2.769531 -3.484375 2.6875 -3.484375 C 2.570312 -3.484375 2.457031 -3.484375 2.34375 -3.484375 C 2.238281 -3.492188 2.132812 -3.507812 2.03125 -3.53125 Z M 2.03125 -3.96875 C 2.132812 -3.945312 2.238281 -3.929688 2.34375 -3.921875 C 2.445312 -3.910156 2.550781 -3.90625 2.65625 -3.90625 C 2.9375 -3.90625 3.195312 -3.945312 3.4375 -4.03125 C 3.675781 -4.125 3.878906 -4.257812 4.046875 -4.4375 C 4.210938 -4.613281 4.335938 -4.832031 4.421875 -5.09375 C 4.515625 -5.351562 4.5625 -5.660156 4.5625 -6.015625 C 4.5625 -6.296875 4.53125 -6.550781 4.46875 -6.78125 C 4.40625 -7.019531 4.304688 -7.21875 4.171875 -7.375 C 4.046875 -7.539062 3.882812 -7.664062 3.6875 -7.75 C 3.5 -7.84375 3.273438 -7.890625 3.015625 -7.890625 C 2.753906 -7.890625 2.546875 -7.875 2.390625 -7.84375 C 2.234375 -7.820312 2.113281 -7.796875 2.03125 -7.765625 Z M 2.03125 -3.96875 "/></g></g></g><g fill="#ffffff" fill-opacity="1"><g transform="translate(75.876668, 51.605745)"><g><path d="M 4.5625 -8.359375 C 5.195312 -8.359375 5.785156 -8.253906 6.328125 -8.046875 C 6.867188 -7.835938 7.335938 -7.539062 7.734375 -7.15625 C 8.128906 -6.78125 8.4375 -6.328125 8.65625 -5.796875 C 8.875 -5.273438 8.984375 -4.695312 8.984375 -4.0625 C 8.984375 -3.695312 8.941406 -3.335938 8.859375 -2.984375 C 8.773438 -2.640625 8.648438 -2.3125 8.484375 -2 C 8.328125 -1.6875 8.128906 -1.394531 7.890625 -1.125 C 7.660156 -0.863281 7.390625 -0.632812 7.078125 -0.4375 C 6.773438 -0.25 6.441406 -0.101562 6.078125 0 C 5.710938 0.113281 5.316406 0.171875 4.890625 0.171875 C 4.253906 0.171875 3.664062 0.0703125 3.125 -0.125 C 2.582031 -0.332031 2.113281 -0.625 1.71875 -1 C 1.332031 -1.375 1.023438 -1.820312 0.796875 -2.34375 C 0.578125 -2.875 0.46875 -3.457031 0.46875 -4.09375 C 0.46875 -4.457031 0.507812 -4.8125 0.59375 -5.15625 C 0.675781 -5.507812 0.796875 -5.84375 0.953125 -6.15625 C 1.117188 -6.476562 1.316406 -6.769531 1.546875 -7.03125 C 1.785156 -7.300781 2.054688 -7.535156 2.359375 -7.734375 C 2.671875 -7.929688 3.007812 -8.082031 3.375 -8.1875 C 3.75 -8.300781 4.144531 -8.359375 4.5625 -8.359375 Z M 4.890625 -0.34375 C 5.316406 -0.34375 5.703125 -0.414062 6.046875 -0.5625 C 6.398438 -0.71875 6.703125 -0.941406 6.953125 -1.234375 C 7.210938 -1.523438 7.410156 -1.878906 7.546875 -2.296875 C 7.691406 -2.710938 7.765625 -3.1875 7.765625 -3.71875 C 7.765625 -4.300781 7.695312 -4.84375 7.5625 -5.34375 C 7.425781 -5.851562 7.222656 -6.289062 6.953125 -6.65625 C 6.691406 -7.03125 6.359375 -7.320312 5.953125 -7.53125 C 5.554688 -7.738281 5.09375 -7.84375 4.5625 -7.84375 C 4.144531 -7.84375 3.757812 -7.765625 3.40625 -7.609375 C 3.050781 -7.460938 2.742188 -7.242188 2.484375 -6.953125 C 2.234375 -6.671875 2.035156 -6.320312 1.890625 -5.90625 C 1.753906 -5.488281 1.6875 -5.015625 1.6875 -4.484375 C 1.6875 -3.898438 1.753906 -3.351562 1.890625 -2.84375 C 2.023438 -2.332031 2.222656 -1.890625 2.484375 -1.515625 C 2.753906 -1.148438 3.085938 -0.863281 3.484375 -0.65625 C 3.890625 -0.445312 4.359375 -0.34375 4.890625 -0.34375 Z M 4.890625 -0.34375 "/></g></g></g><g fill="#ffffff" fill-opacity="1"><g transform="translate(88.416424, 51.605745)"><g><path d="M 2.03125 -0.5 C 2.476562 -0.5 2.890625 -0.519531 3.265625 -0.5625 C 3.648438 -0.601562 3.984375 -0.644531 4.265625 -0.6875 C 4.585938 -0.75 4.882812 -0.8125 5.15625 -0.875 L 5 0.046875 C 4.945312 0.046875 4.875 0.0390625 4.78125 0.03125 C 4.695312 0.03125 4.597656 0.0234375 4.484375 0.015625 C 4.367188 0.015625 4.25 0.015625 4.125 0.015625 C 4 0.015625 3.878906 0.0078125 3.765625 0 C 3.660156 0 3.566406 0 3.484375 0 C 3.398438 0 3.335938 0 3.296875 0 L 0.8125 0 L 0.8125 -0.015625 C 0.84375 -0.0976562 0.867188 -0.195312 0.890625 -0.3125 C 0.910156 -0.4375 0.925781 -0.585938 0.9375 -0.765625 C 0.957031 -0.941406 0.96875 -1.148438 0.96875 -1.390625 C 0.976562 -1.628906 0.984375 -1.910156 0.984375 -2.234375 L 0.984375 -5.96875 C 0.984375 -6.289062 0.976562 -6.570312 0.96875 -6.8125 C 0.96875 -7.0625 0.957031 -7.273438 0.9375 -7.453125 C 0.925781 -7.628906 0.910156 -7.773438 0.890625 -7.890625 C 0.867188 -8.015625 0.84375 -8.113281 0.8125 -8.1875 L 0.8125 -8.21875 L 2.1875 -8.21875 L 2.1875 -8.1875 C 2.164062 -8.113281 2.144531 -8.015625 2.125 -7.890625 C 2.101562 -7.773438 2.085938 -7.628906 2.078125 -7.453125 C 2.066406 -7.273438 2.054688 -7.0625 2.046875 -6.8125 C 2.035156 -6.570312 2.03125 -6.289062 2.03125 -5.96875 Z M 2.03125 -0.5 "/></g></g></g><g fill="#ffffff" fill-opacity="1"><g transform="translate(96.895963, 51.605745)"><g><path d="M 0.8125 -8.21875 C 1.289062 -8.21875 1.765625 -8.21875 2.234375 -8.21875 C 2.710938 -8.226562 3.144531 -8.234375 3.53125 -8.234375 C 3.925781 -8.242188 4.265625 -8.253906 4.546875 -8.265625 C 4.828125 -8.273438 5.015625 -8.289062 5.109375 -8.3125 L 4.828125 -7.546875 C 4.703125 -7.578125 4.554688 -7.609375 4.390625 -7.640625 C 4.242188 -7.660156 4.066406 -7.679688 3.859375 -7.703125 C 3.648438 -7.722656 3.410156 -7.734375 3.140625 -7.734375 C 3.054688 -7.734375 2.945312 -7.726562 2.8125 -7.71875 C 2.6875 -7.71875 2.566406 -7.710938 2.453125 -7.703125 C 2.304688 -7.691406 2.164062 -7.6875 2.03125 -7.6875 L 2.03125 -4.5625 C 2.425781 -4.5625 2.78125 -4.570312 3.09375 -4.59375 C 3.40625 -4.613281 3.675781 -4.628906 3.90625 -4.640625 C 4.164062 -4.671875 4.394531 -4.703125 4.59375 -4.734375 L 4.40625 -3.890625 C 4.144531 -3.929688 3.878906 -3.96875 3.609375 -4 C 3.367188 -4.019531 3.109375 -4.039062 2.828125 -4.0625 C 2.546875 -4.082031 2.28125 -4.09375 2.03125 -4.09375 L 2.03125 -0.5 C 2.476562 -0.5 2.890625 -0.519531 3.265625 -0.5625 C 3.648438 -0.601562 3.984375 -0.644531 4.265625 -0.6875 C 4.585938 -0.75 4.882812 -0.8125 5.15625 -0.875 L 5 0.046875 C 4.945312 0.046875 4.875 0.0390625 4.78125 0.03125 C 4.695312 0.03125 4.597656 0.0234375 4.484375 0.015625 C 4.367188 0.015625 4.25 0.015625 4.125 0.015625 C 4 0.015625 3.878906 0.0078125 3.765625 0 C 3.660156 0 3.566406 0 3.484375 0 C 3.398438 0 3.335938 0 3.296875 0 L 0.8125 0 L 0.8125 -0.015625 C 0.84375 -0.0976562 0.867188 -0.195312 0.890625 -0.3125 C 0.910156 -0.4375 0.925781 -0.585938 0.9375 -0.765625 C 0.957031 -0.941406 0.96875 -1.148438 0.96875 -1.390625 C 0.976562 -1.628906 0.984375 -1.910156 0.984375 -2.234375 L 0.984375 -5.96875 C 0.984375 -6.289062 0.976562 -6.570312 0.96875 -6.8125 C 0.96875 -7.0625 0.957031 -7.273438 0.9375 -7.453125 C 0.925781 -7.628906 0.910156 -7.773438 0.890625 -7.890625 C 0.867188 -8.015625 0.84375 -8.113281 0.8125 -8.1875 Z M 0.8125 -8.21875 "/></g></g></g><g fill="#ffffff" fill-opacity="1"><g transform="translate(105.730556, 51.605745)"><g/></g></g><g fill="#ffffff" fill-opacity="1"><g transform="translate(112.331744, 51.605745)"><g><path d="M 2.078125 -7.71875 C 2.066406 -7.289062 2.054688 -6.878906 2.046875 -6.484375 C 2.046875 -6.304688 2.046875 -6.128906 2.046875 -5.953125 C 2.046875 -5.773438 2.039062 -5.597656 2.03125 -5.421875 C 2.03125 -5.242188 2.03125 -5.078125 2.03125 -4.921875 C 2.03125 -4.765625 2.03125 -4.625 2.03125 -4.5 C 2.03125 -4.25 2.03125 -3.941406 2.03125 -3.578125 C 2.039062 -3.210938 2.046875 -2.835938 2.046875 -2.453125 C 2.054688 -2.078125 2.066406 -1.710938 2.078125 -1.359375 C 2.085938 -1.003906 2.097656 -0.710938 2.109375 -0.484375 C 2.160156 -0.472656 2.234375 -0.460938 2.328125 -0.453125 C 2.421875 -0.441406 2.515625 -0.429688 2.609375 -0.421875 C 2.710938 -0.421875 2.8125 -0.414062 2.90625 -0.40625 C 3 -0.40625 3.078125 -0.40625 3.140625 -0.40625 C 3.410156 -0.40625 3.6875 -0.421875 3.96875 -0.453125 C 4.25 -0.492188 4.519531 -0.5625 4.78125 -0.65625 C 5.039062 -0.757812 5.285156 -0.898438 5.515625 -1.078125 C 5.753906 -1.253906 5.957031 -1.476562 6.125 -1.75 C 6.300781 -2.03125 6.4375 -2.363281 6.53125 -2.75 C 6.632812 -3.132812 6.6875 -3.59375 6.6875 -4.125 C 6.6875 -4.707031 6.613281 -5.222656 6.46875 -5.671875 C 6.332031 -6.128906 6.125 -6.515625 5.84375 -6.828125 C 5.570312 -7.148438 5.234375 -7.390625 4.828125 -7.546875 C 4.429688 -7.710938 3.972656 -7.796875 3.453125 -7.796875 C 3.347656 -7.796875 3.226562 -7.789062 3.09375 -7.78125 C 2.96875 -7.78125 2.835938 -7.773438 2.703125 -7.765625 C 2.578125 -7.765625 2.457031 -7.757812 2.34375 -7.75 C 2.238281 -7.738281 2.148438 -7.726562 2.078125 -7.71875 Z M 0.8125 -8.234375 C 0.90625 -8.234375 0.988281 -8.234375 1.0625 -8.234375 C 1.125 -8.222656 1.191406 -8.21875 1.265625 -8.21875 C 1.335938 -8.21875 1.394531 -8.21875 1.4375 -8.21875 C 1.507812 -8.21875 1.628906 -8.21875 1.796875 -8.21875 C 1.960938 -8.226562 2.15625 -8.238281 2.375 -8.25 C 2.59375 -8.257812 2.816406 -8.265625 3.046875 -8.265625 C 3.285156 -8.273438 3.507812 -8.28125 3.71875 -8.28125 C 4.269531 -8.28125 4.796875 -8.210938 5.296875 -8.078125 C 5.796875 -7.941406 6.234375 -7.71875 6.609375 -7.40625 C 6.992188 -7.09375 7.296875 -6.679688 7.515625 -6.171875 C 7.734375 -5.660156 7.84375 -5.035156 7.84375 -4.296875 C 7.84375 -3.765625 7.785156 -3.285156 7.671875 -2.859375 C 7.554688 -2.441406 7.394531 -2.066406 7.1875 -1.734375 C 6.976562 -1.410156 6.726562 -1.132812 6.4375 -0.90625 C 6.144531 -0.675781 5.820312 -0.484375 5.46875 -0.328125 C 5.113281 -0.179688 4.734375 -0.0703125 4.328125 0 C 3.929688 0.0625 3.519531 0.09375 3.09375 0.09375 C 2.9375 0.09375 2.75 0.0859375 2.53125 0.078125 C 2.320312 0.0664062 2.109375 0.0546875 1.890625 0.046875 C 1.671875 0.0351562 1.460938 0.0234375 1.265625 0.015625 C 1.078125 0.00390625 0.925781 0 0.8125 0 L 0.8125 -0.015625 C 0.84375 -0.0976562 0.867188 -0.195312 0.890625 -0.3125 C 0.910156 -0.4375 0.925781 -0.585938 0.9375 -0.765625 C 0.957031 -0.941406 0.96875 -1.148438 0.96875 -1.390625 C 0.976562 -1.628906 0.984375 -1.910156 0.984375 -2.234375 L 0.984375 -5.96875 C 0.984375 -6.289062 0.976562 -6.578125 0.96875 -6.828125 C 0.96875 -7.078125 0.957031 -7.289062 0.9375 -7.46875 C 0.925781 -7.644531 0.910156 -7.789062 0.890625 -7.90625 C 0.867188 -8.03125 0.84375 -8.132812 0.8125 -8.21875 Z M 0.8125 -8.234375 "/></g></g></g><g fill="#ffffff" fill-opacity="1"><g transform="translate(123.78915, 51.605745)"><g><path d="M 0.8125 -8.21875 C 1.289062 -8.21875 1.765625 -8.21875 2.234375 -8.21875 C 2.710938 -8.226562 3.144531 -8.234375 3.53125 -8.234375 C 3.925781 -8.242188 4.265625 -8.253906 4.546875 -8.265625 C 4.828125 -8.273438 5.015625 -8.289062 5.109375 -8.3125 L 4.828125 -7.546875 C 4.703125 -7.578125 4.554688 -7.609375 4.390625 -7.640625 C 4.242188 -7.660156 4.066406 -7.679688 3.859375 -7.703125 C 3.648438 -7.722656 3.410156 -7.734375 3.140625 -7.734375 C 3.054688 -7.734375 2.945312 -7.726562 2.8125 -7.71875 C 2.6875 -7.71875 2.566406 -7.710938 2.453125 -7.703125 C 2.304688 -7.691406 2.164062 -7.6875 2.03125 -7.6875 L 2.03125 -4.5625 C 2.425781 -4.5625 2.78125 -4.570312 3.09375 -4.59375 C 3.40625 -4.613281 3.675781 -4.628906 3.90625 -4.640625 C 4.164062 -4.671875 4.394531 -4.703125 4.59375 -4.734375 L 4.40625 -3.890625 C 4.144531 -3.929688 3.878906 -3.96875 3.609375 -4 C 3.367188 -4.019531 3.109375 -4.039062 2.828125 -4.0625 C 2.546875 -4.082031 2.28125 -4.09375 2.03125 -4.09375 L 2.03125 -0.5 C 2.476562 -0.5 2.890625 -0.519531 3.265625 -0.5625 C 3.648438 -0.601562 3.984375 -0.644531 4.265625 -0.6875 C 4.585938 -0.75 4.882812 -0.8125 5.15625 -0.875 L 5 0.046875 C 4.945312 0.046875 4.875 0.0390625 4.78125 0.03125 C 4.695312 0.03125 4.597656 0.0234375 4.484375 0.015625 C 4.367188 0.015625 4.25 0.015625 4.125 0.015625 C 4 0.015625 3.878906 0.0078125 3.765625 0 C 3.660156 0 3.566406 0 3.484375 0 C 3.398438 0 3.335938 0 3.296875 0 L 0.8125 0 L 0.8125 -0.015625 C 0.84375 -0.0976562 0.867188 -0.195312 0.890625 -0.3125 C 0.910156 -0.4375 0.925781 -0.585938 0.9375 -0.765625 C 0.957031 -0.941406 0.96875 -1.148438 0.96875 -1.390625 C 0.976562 -1.628906 0.984375 -1.910156 0.984375 -2.234375 L 0.984375 -5.96875 C 0.984375 -6.289062 0.976562 -6.570312 0.96875 -6.8125 C 0.96875 -7.0625 0.957031 -7.273438 0.9375 -7.453125 C 0.925781 -7.628906 0.910156 -7.773438 0.890625 -7.890625 C 0.867188 -8.015625 0.84375 -8.113281 0.8125 -8.1875 Z M 0.8125 -8.21875 "/></g></g></g><g fill="#ffffff" fill-opacity="1"><g transform="translate(40.207239, 64.626124)"><g><path d="M 0.8125 -8.21875 C 1.289062 -8.21875 1.765625 -8.21875 2.234375 -8.21875 C 2.710938 -8.226562 3.144531 -8.234375 3.53125 -8.234375 C 3.925781 -8.242188 4.265625 -8.253906 4.546875 -8.265625 C 4.828125 -8.273438 5.015625 -8.289062 5.109375 -8.3125 L 4.828125 -7.546875 C 4.703125 -7.578125 4.554688 -7.609375 4.390625 -7.640625 C 4.242188 -7.660156 4.066406 -7.679688 3.859375 -7.703125 C 3.648438 -7.722656 3.410156 -7.734375 3.140625 -7.734375 C 3.054688 -7.734375 2.945312 -7.726562 2.8125 -7.71875 C 2.6875 -7.71875 2.566406 -7.710938 2.453125 -7.703125 C 2.304688 -7.691406 2.164062 -7.6875 2.03125 -7.6875 L 2.03125 -4.5625 C 2.425781 -4.5625 2.78125 -4.570312 3.09375 -4.59375 C 3.40625 -4.613281 3.675781 -4.628906 3.90625 -4.640625 C 4.164062 -4.671875 4.394531 -4.703125 4.59375 -4.734375 L 4.40625 -3.890625 C 4.144531 -3.929688 3.878906 -3.96875 3.609375 -4 C 3.367188 -4.019531 3.109375 -4.039062 2.828125 -4.0625 C 2.546875 -4.082031 2.28125 -4.09375 2.03125 -4.09375 L 2.03125 -0.5 C 2.476562 -0.5 2.890625 -0.519531 3.265625 -0.5625 C 3.648438 -0.601562 3.984375 -0.644531 4.265625 -0.6875 C 4.585938 -0.75 4.882812 -0.8125 5.15625 -0.875 L 5 0.046875 C 4.945312 0.046875 4.875 0.0390625 4.78125 0.03125 C 4.695312 0.03125 4.597656 0.0234375 4.484375 0.015625 C 4.367188 0.015625 4.25 0.015625 4.125 0.015625 C 4 0.015625 3.878906 0.0078125 3.765625 0 C 3.660156 0 3.566406 0 3.484375 0 C 3.398438 0 3.335938 0 3.296875 0 L 0.8125 0 L 0.8125 -0.015625 C 0.84375 -0.0976562 0.867188 -0.195312 0.890625 -0.3125 C 0.910156 -0.4375 0.925781 -0.585938 0.9375 -0.765625 C 0.957031 -0.941406 0.96875 -1.148438 0.96875 -1.390625 C 0.976562 -1.628906 0.984375 -1.910156 0.984375 -2.234375 L 0.984375 -5.96875 C 0.984375 -6.289062 0.976562 -6.570312 0.96875 -6.8125 C 0.96875 -7.0625 0.957031 -7.273438 0.9375 -7.453125 C 0.925781 -7.628906 0.910156 -7.773438 0.890625 -7.890625 C 0.867188 -8.015625 0.84375 -8.113281 0.8125 -8.1875 Z M 0.8125 -8.21875 "/></g></g></g><g fill="#ffffff" fill-opacity="1"><g transform="translate(49.041831, 64.626124)"><g><path d="M 4.25 -6.90625 L 4.125 -6.90625 C 4.09375 -7 4.039062 -7.097656 3.96875 -7.203125 C 3.90625 -7.316406 3.816406 -7.421875 3.703125 -7.515625 C 3.597656 -7.617188 3.46875 -7.703125 3.3125 -7.765625 C 3.15625 -7.828125 2.972656 -7.859375 2.765625 -7.859375 C 2.578125 -7.859375 2.410156 -7.828125 2.265625 -7.765625 C 2.117188 -7.710938 2 -7.632812 1.90625 -7.53125 C 1.8125 -7.425781 1.738281 -7.300781 1.6875 -7.15625 C 1.632812 -7.019531 1.609375 -6.867188 1.609375 -6.703125 C 1.609375 -6.421875 1.6875 -6.15625 1.84375 -5.90625 C 2 -5.65625 2.191406 -5.40625 2.421875 -5.15625 C 2.648438 -4.914062 2.898438 -4.671875 3.171875 -4.421875 C 3.453125 -4.179688 3.707031 -3.929688 3.9375 -3.671875 C 4.164062 -3.410156 4.359375 -3.132812 4.515625 -2.84375 C 4.671875 -2.550781 4.75 -2.238281 4.75 -1.90625 C 4.75 -1.664062 4.703125 -1.421875 4.609375 -1.171875 C 4.523438 -0.921875 4.394531 -0.691406 4.21875 -0.484375 C 4.039062 -0.285156 3.8125 -0.125 3.53125 0 C 3.25 0.113281 2.910156 0.171875 2.515625 0.171875 C 2.296875 0.171875 2.085938 0.148438 1.890625 0.109375 C 1.703125 0.078125 1.523438 0.03125 1.359375 -0.03125 C 1.191406 -0.09375 1.039062 -0.15625 0.90625 -0.21875 C 0.769531 -0.289062 0.660156 -0.351562 0.578125 -0.40625 L 0.71875 -1.671875 L 0.859375 -1.671875 C 0.898438 -1.492188 0.96875 -1.320312 1.0625 -1.15625 C 1.15625 -1 1.269531 -0.859375 1.40625 -0.734375 C 1.550781 -0.609375 1.710938 -0.507812 1.890625 -0.4375 C 2.078125 -0.363281 2.273438 -0.328125 2.484375 -0.328125 C 2.679688 -0.328125 2.859375 -0.351562 3.015625 -0.40625 C 3.171875 -0.46875 3.300781 -0.550781 3.40625 -0.65625 C 3.519531 -0.757812 3.601562 -0.882812 3.65625 -1.03125 C 3.71875 -1.175781 3.75 -1.335938 3.75 -1.515625 C 3.75 -1.753906 3.703125 -1.972656 3.609375 -2.171875 C 3.523438 -2.378906 3.410156 -2.570312 3.265625 -2.75 C 3.128906 -2.9375 2.96875 -3.113281 2.78125 -3.28125 C 2.601562 -3.457031 2.414062 -3.632812 2.21875 -3.8125 C 2.03125 -3.988281 1.84375 -4.164062 1.65625 -4.34375 C 1.476562 -4.53125 1.316406 -4.726562 1.171875 -4.9375 C 1.035156 -5.144531 0.921875 -5.367188 0.828125 -5.609375 C 0.742188 -5.847656 0.703125 -6.109375 0.703125 -6.390625 C 0.703125 -6.691406 0.757812 -6.960938 0.875 -7.203125 C 0.988281 -7.453125 1.144531 -7.660156 1.34375 -7.828125 C 1.539062 -8.003906 1.757812 -8.132812 2 -8.21875 C 2.238281 -8.3125 2.488281 -8.359375 2.75 -8.359375 C 2.945312 -8.359375 3.125 -8.34375 3.28125 -8.3125 C 3.445312 -8.289062 3.59375 -8.253906 3.71875 -8.203125 C 3.84375 -8.160156 3.953125 -8.117188 4.046875 -8.078125 C 4.140625 -8.035156 4.21875 -8.003906 4.28125 -7.984375 Z M 4.25 -6.90625 "/></g></g></g><g fill="#ffffff" fill-opacity="1"><g transform="translate(57.464101, 64.626124)"><g><path d="M 2.984375 -7.71875 C 2.523438 -7.71875 2.113281 -7.695312 1.75 -7.65625 C 1.394531 -7.613281 1.082031 -7.566406 0.8125 -7.515625 C 0.507812 -7.460938 0.238281 -7.398438 0 -7.328125 L 0.171875 -8.265625 C 0.210938 -8.253906 0.28125 -8.25 0.375 -8.25 C 0.46875 -8.25 0.566406 -8.242188 0.671875 -8.234375 C 0.785156 -8.234375 0.90625 -8.234375 1.03125 -8.234375 C 1.15625 -8.234375 1.269531 -8.226562 1.375 -8.21875 C 1.488281 -8.21875 1.585938 -8.21875 1.671875 -8.21875 C 1.765625 -8.21875 1.832031 -8.21875 1.875 -8.21875 L 5.140625 -8.21875 C 5.179688 -8.21875 5.242188 -8.21875 5.328125 -8.21875 C 5.410156 -8.21875 5.503906 -8.21875 5.609375 -8.21875 C 5.722656 -8.226562 5.84375 -8.234375 5.96875 -8.234375 C 6.09375 -8.234375 6.210938 -8.234375 6.328125 -8.234375 C 6.441406 -8.242188 6.539062 -8.25 6.625 -8.25 C 6.71875 -8.25 6.789062 -8.253906 6.84375 -8.265625 L 7 -7.328125 C 6.757812 -7.398438 6.488281 -7.460938 6.1875 -7.515625 C 5.914062 -7.566406 5.597656 -7.613281 5.234375 -7.65625 C 4.878906 -7.695312 4.472656 -7.71875 4.015625 -7.71875 L 4.015625 -2.234375 C 4.015625 -1.910156 4.019531 -1.628906 4.03125 -1.390625 C 4.039062 -1.148438 4.050781 -0.941406 4.0625 -0.765625 C 4.082031 -0.585938 4.101562 -0.4375 4.125 -0.3125 C 4.144531 -0.195312 4.164062 -0.0976562 4.1875 -0.015625 L 4.1875 0 L 2.8125 0 L 2.8125 -0.015625 C 2.84375 -0.0976562 2.863281 -0.195312 2.875 -0.3125 C 2.894531 -0.4375 2.910156 -0.585938 2.921875 -0.765625 C 2.941406 -0.941406 2.957031 -1.148438 2.96875 -1.390625 C 2.976562 -1.628906 2.984375 -1.910156 2.984375 -2.234375 Z M 2.984375 -7.71875 "/></g></g></g><g fill="#ffffff" fill-opacity="1"><g transform="translate(67.552836, 64.626124)"><g><path d="M 4.5625 -8.359375 C 5.195312 -8.359375 5.785156 -8.253906 6.328125 -8.046875 C 6.867188 -7.835938 7.335938 -7.539062 7.734375 -7.15625 C 8.128906 -6.78125 8.4375 -6.328125 8.65625 -5.796875 C 8.875 -5.273438 8.984375 -4.695312 8.984375 -4.0625 C 8.984375 -3.695312 8.941406 -3.335938 8.859375 -2.984375 C 8.773438 -2.640625 8.648438 -2.3125 8.484375 -2 C 8.328125 -1.6875 8.128906 -1.394531 7.890625 -1.125 C 7.660156 -0.863281 7.390625 -0.632812 7.078125 -0.4375 C 6.773438 -0.25 6.441406 -0.101562 6.078125 0 C 5.710938 0.113281 5.316406 0.171875 4.890625 0.171875 C 4.253906 0.171875 3.664062 0.0703125 3.125 -0.125 C 2.582031 -0.332031 2.113281 -0.625 1.71875 -1 C 1.332031 -1.375 1.023438 -1.820312 0.796875 -2.34375 C 0.578125 -2.875 0.46875 -3.457031 0.46875 -4.09375 C 0.46875 -4.457031 0.507812 -4.8125 0.59375 -5.15625 C 0.675781 -5.507812 0.796875 -5.84375 0.953125 -6.15625 C 1.117188 -6.476562 1.316406 -6.769531 1.546875 -7.03125 C 1.785156 -7.300781 2.054688 -7.535156 2.359375 -7.734375 C 2.671875 -7.929688 3.007812 -8.082031 3.375 -8.1875 C 3.75 -8.300781 4.144531 -8.359375 4.5625 -8.359375 Z M 4.890625 -0.34375 C 5.316406 -0.34375 5.703125 -0.414062 6.046875 -0.5625 C 6.398438 -0.71875 6.703125 -0.941406 6.953125 -1.234375 C 7.210938 -1.523438 7.410156 -1.878906 7.546875 -2.296875 C 7.691406 -2.710938 7.765625 -3.1875 7.765625 -3.71875 C 7.765625 -4.300781 7.695312 -4.84375 7.5625 -5.34375 C 7.425781 -5.851562 7.222656 -6.289062 6.953125 -6.65625 C 6.691406 -7.03125 6.359375 -7.320312 5.953125 -7.53125 C 5.554688 -7.738281 5.09375 -7.84375 4.5625 -7.84375 C 4.144531 -7.84375 3.757812 -7.765625 3.40625 -7.609375 C 3.050781 -7.460938 2.742188 -7.242188 2.484375 -6.953125 C 2.234375 -6.671875 2.035156 -6.320312 1.890625 -5.90625 C 1.753906 -5.488281 1.6875 -5.015625 1.6875 -4.484375 C 1.6875 -3.898438 1.753906 -3.351562 1.890625 -2.84375 C 2.023438 -2.332031 2.222656 -1.890625 2.484375 -1.515625 C 2.753906 -1.148438 3.085938 -0.863281 3.484375 -0.65625 C 3.890625 -0.445312 4.359375 -0.34375 4.890625 -0.34375 Z M 4.890625 -0.34375 "/></g></g></g><g fill="#ffffff" fill-opacity="1"><g transform="translate(80.092593, 64.626124)"><g><path d="M 4.5625 -8.359375 C 5.195312 -8.359375 5.785156 -8.253906 6.328125 -8.046875 C 6.867188 -7.835938 7.335938 -7.539062 7.734375 -7.15625 C 8.128906 -6.78125 8.4375 -6.328125 8.65625 -5.796875 C 8.875 -5.273438 8.984375 -4.695312 8.984375 -4.0625 C 8.984375 -3.632812 8.925781 -3.210938 8.8125 -2.796875 C 8.695312 -2.390625 8.523438 -2.007812 8.296875 -1.65625 C 8.066406 -1.300781 7.789062 -0.984375 7.46875 -0.703125 C 7.144531 -0.429688 6.773438 -0.21875 6.359375 -0.0625 C 6.472656 0.144531 6.59375 0.359375 6.71875 0.578125 C 6.84375 0.804688 6.984375 1.023438 7.140625 1.234375 C 7.296875 1.453125 7.472656 1.660156 7.671875 1.859375 C 7.867188 2.066406 8.097656 2.25 8.359375 2.40625 C 8.617188 2.570312 8.914062 2.71875 9.25 2.84375 C 9.582031 2.96875 9.96875 3.066406 10.40625 3.140625 C 10.394531 3.148438 10.382812 3.160156 10.375 3.171875 C 10.375 3.191406 10.367188 3.207031 10.359375 3.21875 C 10.347656 3.238281 10.34375 3.257812 10.34375 3.28125 C 9.832031 3.269531 9.363281 3.207031 8.9375 3.09375 C 8.519531 2.988281 8.128906 2.847656 7.765625 2.671875 C 7.410156 2.503906 7.085938 2.3125 6.796875 2.09375 C 6.503906 1.882812 6.238281 1.664062 6 1.4375 C 5.769531 1.21875 5.5625 1 5.375 0.78125 C 5.195312 0.5625 5.046875 0.359375 4.921875 0.171875 C 4.273438 0.171875 3.679688 0.0703125 3.140625 -0.125 C 2.597656 -0.332031 2.128906 -0.625 1.734375 -1 C 1.335938 -1.375 1.023438 -1.820312 0.796875 -2.34375 C 0.578125 -2.875 0.46875 -3.457031 0.46875 -4.09375 C 0.46875 -4.457031 0.507812 -4.8125 0.59375 -5.15625 C 0.675781 -5.507812 0.796875 -5.84375 0.953125 -6.15625 C 1.117188 -6.476562 1.316406 -6.769531 1.546875 -7.03125 C 1.785156 -7.300781 2.054688 -7.535156 2.359375 -7.734375 C 2.671875 -7.929688 3.007812 -8.082031 3.375 -8.1875 C 3.75 -8.300781 4.144531 -8.359375 4.5625 -8.359375 Z M 4.890625 -0.34375 C 5.316406 -0.34375 5.703125 -0.414062 6.046875 -0.5625 C 6.398438 -0.71875 6.703125 -0.941406 6.953125 -1.234375 C 7.210938 -1.523438 7.410156 -1.878906 7.546875 -2.296875 C 7.691406 -2.710938 7.765625 -3.1875 7.765625 -3.71875 C 7.765625 -4.300781 7.695312 -4.84375 7.5625 -5.34375 C 7.425781 -5.851562 7.222656 -6.289062 6.953125 -6.65625 C 6.691406 -7.03125 6.359375 -7.320312 5.953125 -7.53125 C 5.554688 -7.738281 5.09375 -7.84375 4.5625 -7.84375 C 4.144531 -7.84375 3.757812 -7.765625 3.40625 -7.609375 C 3.050781 -7.460938 2.742188 -7.242188 2.484375 -6.953125 C 2.234375 -6.671875 2.035156 -6.320312 1.890625 -5.90625 C 1.753906 -5.488281 1.6875 -5.015625 1.6875 -4.484375 C 1.6875 -3.898438 1.753906 -3.351562 1.890625 -2.84375 C 2.023438 -2.332031 2.222656 -1.890625 2.484375 -1.515625 C 2.753906 -1.148438 3.085938 -0.863281 3.484375 -0.65625 C 3.890625 -0.445312 4.359375 -0.34375 4.890625 -0.34375 Z M 4.890625 -0.34375 "/></g></g></g><g fill="#ffffff" fill-opacity="1"><g transform="translate(92.63235, 64.626124)"><g><path d="M 6.703125 -5.96875 C 6.703125 -6.289062 6.695312 -6.570312 6.6875 -6.8125 C 6.675781 -7.0625 6.660156 -7.273438 6.640625 -7.453125 C 6.628906 -7.628906 6.613281 -7.773438 6.59375 -7.890625 C 6.582031 -8.015625 6.5625 -8.113281 6.53125 -8.1875 L 6.53125 -8.21875 L 7.5625 -8.21875 L 7.5625 -8.1875 C 7.53125 -8.113281 7.503906 -8.015625 7.484375 -7.890625 C 7.460938 -7.773438 7.445312 -7.628906 7.4375 -7.453125 C 7.425781 -7.273438 7.414062 -7.0625 7.40625 -6.8125 C 7.394531 -6.570312 7.390625 -6.289062 7.390625 -5.96875 L 7.390625 -2.875 C 7.390625 -2.332031 7.3125 -1.867188 7.15625 -1.484375 C 7 -1.097656 6.78125 -0.78125 6.5 -0.53125 C 6.21875 -0.28125 5.882812 -0.101562 5.5 0 C 5.113281 0.113281 4.6875 0.171875 4.21875 0.171875 C 3.757812 0.171875 3.328125 0.117188 2.921875 0.015625 C 2.523438 -0.0859375 2.175781 -0.257812 1.875 -0.5 C 1.582031 -0.738281 1.351562 -1.046875 1.1875 -1.421875 C 1.019531 -1.804688 0.9375 -2.269531 0.9375 -2.8125 L 0.9375 -5.96875 C 0.9375 -6.289062 0.929688 -6.570312 0.921875 -6.8125 C 0.921875 -7.0625 0.910156 -7.273438 0.890625 -7.453125 C 0.878906 -7.628906 0.863281 -7.773438 0.84375 -7.890625 C 0.820312 -8.015625 0.800781 -8.113281 0.78125 -8.1875 L 0.78125 -8.21875 L 2.15625 -8.21875 L 2.15625 -8.1875 C 2.125 -8.113281 2.097656 -8.015625 2.078125 -7.890625 C 2.054688 -7.773438 2.035156 -7.628906 2.015625 -7.453125 C 2.003906 -7.273438 1.992188 -7.0625 1.984375 -6.8125 C 1.984375 -6.570312 1.984375 -6.289062 1.984375 -5.96875 L 1.984375 -2.75 C 1.984375 -2.300781 2.050781 -1.925781 2.1875 -1.625 C 2.320312 -1.332031 2.5 -1.097656 2.71875 -0.921875 C 2.9375 -0.753906 3.1875 -0.632812 3.46875 -0.5625 C 3.757812 -0.488281 4.050781 -0.453125 4.34375 -0.453125 C 4.632812 -0.453125 4.921875 -0.488281 5.203125 -0.5625 C 5.484375 -0.632812 5.734375 -0.753906 5.953125 -0.921875 C 6.179688 -1.097656 6.363281 -1.332031 6.5 -1.625 C 6.632812 -1.925781 6.703125 -2.300781 6.703125 -2.75 Z M 6.703125 -5.96875 "/></g></g></g><g fill="#ffffff" fill-opacity="1"><g transform="translate(104.043948, 64.626124)"><g><path d="M 0.8125 -8.21875 C 1.289062 -8.21875 1.765625 -8.21875 2.234375 -8.21875 C 2.710938 -8.226562 3.144531 -8.234375 3.53125 -8.234375 C 3.925781 -8.242188 4.265625 -8.253906 4.546875 -8.265625 C 4.828125 -8.273438 5.015625 -8.289062 5.109375 -8.3125 L 4.828125 -7.546875 C 4.703125 -7.578125 4.554688 -7.609375 4.390625 -7.640625 C 4.242188 -7.660156 4.066406 -7.679688 3.859375 -7.703125 C 3.648438 -7.722656 3.410156 -7.734375 3.140625 -7.734375 C 3.054688 -7.734375 2.945312 -7.726562 2.8125 -7.71875 C 2.6875 -7.71875 2.566406 -7.710938 2.453125 -7.703125 C 2.304688 -7.691406 2.164062 -7.6875 2.03125 -7.6875 L 2.03125 -4.5625 C 2.425781 -4.5625 2.78125 -4.570312 3.09375 -4.59375 C 3.40625 -4.613281 3.675781 -4.628906 3.90625 -4.640625 C 4.164062 -4.671875 4.394531 -4.703125 4.59375 -4.734375 L 4.40625 -3.890625 C 4.144531 -3.929688 3.878906 -3.96875 3.609375 -4 C 3.367188 -4.019531 3.109375 -4.039062 2.828125 -4.0625 C 2.546875 -4.082031 2.28125 -4.09375 2.03125 -4.09375 L 2.03125 -0.5 C 2.476562 -0.5 2.890625 -0.519531 3.265625 -0.5625 C 3.648438 -0.601562 3.984375 -0.644531 4.265625 -0.6875 C 4.585938 -0.75 4.882812 -0.8125 5.15625 -0.875 L 5 0.046875 C 4.945312 0.046875 4.875 0.0390625 4.78125 0.03125 C 4.695312 0.03125 4.597656 0.0234375 4.484375 0.015625 C 4.367188 0.015625 4.25 0.015625 4.125 0.015625 C 4 0.015625 3.878906 0.0078125 3.765625 0 C 3.660156 0 3.566406 0 3.484375 0 C 3.398438 0 3.335938 0 3.296875 0 L 0.8125 0 L 0.8125 -0.015625 C 0.84375 -0.0976562 0.867188 -0.195312 0.890625 -0.3125 C 0.910156 -0.4375 0.925781 -0.585938 0.9375 -0.765625 C 0.957031 -0.941406 0.96875 -1.148438 0.96875 -1.390625 C 0.976562 -1.628906 0.984375 -1.910156 0.984375 -2.234375 L 0.984375 -5.96875 C 0.984375 -6.289062 0.976562 -6.570312 0.96875 -6.8125 C 0.96875 -7.0625 0.957031 -7.273438 0.9375 -7.453125 C 0.925781 -7.628906 0.910156 -7.773438 0.890625 -7.890625 C 0.867188 -8.015625 0.84375 -8.113281 0.8125 -8.1875 Z M 0.8125 -8.21875 "/></g></g></g></svg>